<?xml version="1.0"?>
<svg xmlns="http://www.w3.org/2000/svg" version="1.2" baseProfile="tiny" width="800" height="1173" viewBox="0 0 800 1173" stroke-linecap="round" stroke-linejoin="round">
<g id="map (4)">
<path d="M 370.6 1 398.14 48.72 443.69 90.64 480.37 132.61 481.36 163.36 507.16 190 522.28 309.75 535.14 315.73 559.24 313.49 567.35 336.71 585.39 332.88 566.36 360.3 591.13 396.79 617.13 333.79 659.83 321.48 675.18 349.39 671.9 393.28 723.46 419.47 732.72 467.78 747.24 400.76 762.16 454.55 785.11 467.68 763.82 487.62 787.88 484.47 797.06 507.05 770.59 506.51 756.14 522.29 759.11 534.52 778.03 525.67 787.01 531.92 775.93 549.12 784.68 577.81 787.72 609.24 799 607.14 796.07 633.78 767.54 634.83 742.45 643 759.55 663.66 761.25 682.19 773.56 701.21 746.69 701.07 752.27 728.03 733.03 743.73 738.81 764.67 725.44 774.15 733.23 784.56 751.32 785.51 734.06 819.18 772.76 826.53 778.11 849.43 768.93 861.79 790.33 867.04 760.06 886.56 751.83 897.78 736.71 892.35 714.95 911.42 712.93 879.31 690.46 890.39 681.43 886.51 670.87 902.62 650.8 906.4 641.03 924.06 654.05 947.6 645.66 954.4 648.83 980.13 656.11 986.92 642.85 1035.87 644.71 1058.59 622.87 1056.49 622.23 1072.96 608.7 1091.21 631.49 1105.85 615.78 1111.87 593.31 1087.6 588.99 1058.59 581.91 1057.36 586.22 1033.41 573.92 1025.33 505.5 1012.74 466.64 1017.81 434.82 1031.95 403.28 1060.96 406.01 1070.77 377.92 1074.69 365.97 1119.67 384.09 1158.59 371.83 1172 337.52 1167.44 295.65 1138.24 248.44 1092.9 230.24 1056.81 203.76 1051.2 171.12 1020.13 150.9 1016.89 144.17 1007.59 93.08 997.78 69.81 1011.97 48.33 995.45 67.4 984.28 68.07 967.22 36.06 927.39 1 875.16 26.8 865.9 43.1 847.37 60.91 841.44 87.27 813.25 126.84 807.27 144.45 791.03 166.41 750.02 158.06 728.95 178.32 716.99 208.2 679.4 207.33 656.37 218.76 632.46 223.15 580.36 222.28 515.49 229.8 478.82 221.53 438.67 254.61 353.09 202.26 248.8 231.9 172.21 214.77 144.47 204.83 98.53 221.93 105.19 223.63 94.88 206.85 82.43 235.22 71.71 258.73 84.94 260.71 97.48 278.87 91.74 293.95 98.44 313.26 74.63 334.47 60.21 330.63 48.81 339.38 22.12 356 5.74 370.6 1 Z"/>
<path d="M 664.93 308.47 648.39 304.6 634.14 318.97 609.77 318.42 599.24 293.97 575.46 284.02 581.32 274.53 580.92 242.01 614.04 252.54 606.48 234.89 614.2 230.6 627.42 257.15 641.43 262.17 652.39 278.73 640.12 295.06 659.19 285.71 664.93 308.47 Z"/>
<path d="M 560.34 267.51 569.09 278.68 549.07 290.41 560.34 267.51 Z"/>
</g>
</svg>
